<svg width="204" height="78" viewBox="0 0 204 78" fill="none" xmlns="http://www.w3.org/2000/svg">
<path d="M57.7538 18.691C57.5243 15.1318 56.8524 11.6024 55.1152 8.34221C53.378 5.08203 50.3134 3.70618 46.9374 5.23158C39.2348 8.70113 33.9741 14.2345 31.6306 21.8765C31.0734 23.6561 31.7781 25.2114 33.2858 26.4377C35.2524 28.0229 36.121 27.7986 36.9076 25.4656C38.5301 20.5754 40.6934 15.8945 43.9219 11.722C45.4624 9.73303 46.9374 6.9215 50.1003 7.60942C53.1158 8.26744 53.0339 11.3182 53.4928 13.6213C54.5416 18.9303 54.3122 24.2693 53.5092 29.5932C51.6081 42.2003 47.6749 54.1343 39.3495 64.5579C36.3341 68.3415 32.745 71.6017 27.7301 73.2019C19.9948 75.6695 13.9802 73.1869 11.0139 66.2478C8.89979 61.3277 8.44092 56.1831 9.0309 50.9938C10.7025 36.4276 16.7335 23.4318 26.8288 12.1109C31.7453 6.59248 37.3829 1.76203 45.7902 0.670317C45.528 0.580587 45.2821 0.431034 45.0199 0.386169C37.3337 -1.04951 30.9259 1.6723 25.3374 5.99428C10.637 17.3451 2.5083 32.001 0.328632 49.3487C-0.539956 56.228 0.164747 63.1073 4.24547 69.2687C7.73621 74.5329 12.7347 77.5388 19.6998 77.2996C29.0904 76.9556 36.1538 72.3794 41.9553 66.2777C54.9186 52.5939 58.8846 36.308 57.7538 18.691ZM203.25 56.0486C202.497 55.7644 202.251 56.4822 202.005 56.901C200.481 59.5031 198.907 62.0605 196.974 64.4233C194.991 66.861 192.877 69.2239 190.025 70.854C186.731 72.7233 184.387 71.7213 183.732 68.2219C183.338 66.0983 184.06 64.1392 184.928 62.2549C186.141 59.6228 187.517 57.0655 188.812 54.4783C189.599 52.8931 189.435 51.577 187.599 50.6199C185.567 49.5731 184.83 50.8592 183.978 52.1303C180.667 57.0804 177.324 62.0006 173.505 66.6217C171.965 68.4761 170.326 70.2558 168.228 71.5868C166.868 72.4541 165.36 73.3664 163.623 72.5738C161.853 71.7812 161.689 70.1212 161.853 68.6107C163.033 57.7235 167.786 48.3916 176.717 40.9889C178.815 39.2392 181.552 38.297 184.322 39.4186C187.19 40.5851 187.157 43.2172 187.141 45.6698C187.141 45.8493 187.108 46.0287 187.124 46.2082C187.19 46.8812 186.796 47.7635 187.714 48.1075C188.747 48.5112 189.615 47.9579 190.32 47.2999C191.188 46.5073 191.516 45.5053 191.598 44.3986C191.926 40.1514 188.304 36.4575 183.535 36.1285C179.29 35.8294 175.669 37.31 172.424 39.5682C165.147 44.6379 160.329 51.3527 157.002 59.0246C154.38 65.0813 149.759 69.6277 143.547 72.6037C135.025 76.6864 129.224 73.1869 129.437 64.4682C129.486 62.4642 130.125 61.4473 132.436 61.0435C137.795 60.0714 142.597 57.8731 146.727 54.5979C151.496 50.8293 154.724 46.3278 154.314 40.2411C154.02 36.0837 151.102 33.975 146.612 34.6929C143.564 35.1714 140.81 36.3529 138.467 38.1475C130.256 44.4584 125.11 52.3696 123.111 62.0754C122.226 66.3675 119.817 70.1361 115.736 72.6037C112.442 74.5927 110.017 73.2019 110.082 69.6127C110.131 66.3525 111.377 63.3316 112.196 60.221C112.934 57.4543 113.802 54.6876 113.655 51.8013C113.36 46.1185 108.574 43.8154 103.248 46.8363C101.937 47.584 100.79 48.586 99.741 49.6329C97.3483 52.0107 95.48 54.7176 93.8247 57.559C93.5134 58.0974 93.3986 58.8601 92.3006 59.1293C93.5953 54.8222 94.6605 50.7545 94.4475 46.5222C94.3 43.7406 94.3655 40.7496 91.1042 39.3438C87.7938 37.9231 85.0405 39.6878 82.5331 41.4226C81.0745 42.4395 79.7798 43.6957 78.5507 44.952C75.4697 48.0626 72.8967 51.5321 70.5204 55.1213C70.1434 55.7046 70.0287 56.5122 68.9143 56.7365C69.4715 53.9997 70.0287 51.3228 70.5367 48.6309C70.9137 46.6867 70.9956 44.7276 68.2096 44.2341C65.9971 43.8453 63.7028 45.6698 63.4406 47.928C62.8997 52.2799 61.8836 56.5421 60.6381 60.7594C59.3762 65.0664 58.1962 69.3734 56.9016 73.6655C56.5082 74.9965 56.8688 75.8788 58.229 76.5219C60.6873 77.7033 61.9328 77.3295 62.8506 74.8918C66.2758 65.7992 71.012 57.3646 77.8952 50.0067C79.3046 48.4963 80.8123 47.0905 82.8281 46.2979C85.0241 45.4305 86.4991 46.1484 86.8269 48.3168C87.1219 50.1712 86.958 52.0406 86.5974 53.91C85.3355 60.3257 82.8936 66.4572 81.1892 72.7682C80.6648 74.7123 80.9106 76.2378 83.4508 76.9107C86.0402 77.5837 86.4663 75.9087 87.0399 74.4132C89.7604 67.3844 93.7756 60.9837 98.2496 54.7923C99.1674 53.5361 100.069 52.25 101.544 51.4275C103.871 50.1264 105.772 50.8741 106.329 53.3118C106.69 54.9269 106.313 56.4972 105.952 58.0824C105.215 61.208 104.117 64.2738 103.756 67.4741C103.248 72.0354 104.526 75.3105 107.476 76.6266C110.541 77.9875 115.031 76.806 118.293 73.6804C119.358 72.6486 120.21 71.4372 121.21 70.3305C121.8 69.6725 122.013 68.7304 123.111 68.2817C123.34 68.8051 123.553 69.2986 123.75 69.7922C125.782 74.8619 129.404 77.1799 135.288 77.1799C140.892 77.1799 145.416 74.8769 149.496 71.6316C151.283 70.1959 152.987 68.6705 154.724 67.19C154.921 68.5958 154.97 70.0165 155.314 71.3923C156.707 76.9107 161.935 78.7951 167.196 75.7442C168.785 74.832 170.162 73.6954 171.342 72.3794C173.128 70.3904 174.833 68.3415 176.849 66.0086C177.996 75.0264 183.027 77.823 190.336 73.6356C196.99 69.8071 200.776 63.9149 203.48 57.3795C203.66 56.9458 204.037 56.3327 203.25 56.0486ZM148.398 38.7606C148.398 38.7606 151.823 49.4086 130.142 59.0395C130.158 59.0395 137.369 37.7287 148.398 38.7606Z" fill="white"/>
</svg>
